<svg width="22" height="22" viewBox="0 0 22 22" fill="none" xmlns="http://www.w3.org/2000/svg">
<path d="M10.957 0C4.9152 0 0 4.9152 0 10.957C0 16.9989 4.9152 22 10.957 22C16.9989 22 22 16.9989 22 10.957C22 4.9152 16.9989 0 10.957 0ZM15.5547 14.1797C14.6836 14.1797 13.9153 13.7431 13.4485 13.0799C12.8575 13.7488 12.0035 14.1797 11.043 14.1797C9.26608 14.1797 7.82031 12.7339 7.82031 10.957C7.82031 9.18014 9.26608 7.73438 11.043 7.73438C11.7712 7.73438 12.4363 7.98639 12.9766 8.39536V8.37891C12.9766 8.02265 13.2648 7.73438 13.6211 7.73438C13.9773 7.73438 14.2656 8.02265 14.2656 8.37891C14.2656 9.81234 14.2656 10.1675 14.2656 11.6016C14.2656 12.3122 14.8441 12.8906 15.5547 12.8906C16.2653 12.8906 16.8438 12.3122 16.8438 11.6016C16.8438 7.28789 13.9893 5.15625 11.043 5.15625C7.84425 5.15625 5.24219 7.75831 5.24219 10.957C5.24219 14.1558 7.84425 16.7578 11.043 16.7578C12.332 16.7578 13.5512 16.3449 14.569 15.5632C15.2489 15.0442 16.0274 16.0687 15.3545 16.5853C14.1089 17.5414 12.6184 18.0469 11.043 18.0469C7.13363 18.0469 3.95312 14.8664 3.95312 10.957C3.95312 7.04769 7.13363 3.86719 11.043 3.86719C14.6049 3.86719 18.1328 6.49408 18.1328 11.6016C18.1328 13.0234 16.9766 14.1797 15.5547 14.1797Z" fill="#00AAEA"/>
</svg>
