<svg width="18" height="24" viewBox="0 0 18 24" fill="none" xmlns="http://www.w3.org/2000/svg">
<path d="M9 0C4.03737 0 0 4.03737 0 9C0 11.4107 1.46053 14.5065 4.34098 18.201C5.66066 19.8893 7.08979 21.4891 8.61915 22.99C8.72169 23.0881 8.85811 23.1428 9 23.1428C9.14189 23.1428 9.27831 23.0881 9.38085 22.99C10.9102 21.4891 12.3393 19.8893 13.659 18.201C16.5395 14.5065 18 11.4107 18 9C18 4.03737 13.9626 0 9 0ZM9 15.4286C5.4551 15.4286 2.57143 12.5449 2.57143 9C2.57143 5.4551 5.4551 2.57143 9 2.57143C12.5449 2.57143 15.4286 5.4551 15.4286 9C15.4286 12.5449 12.5449 15.4286 9 15.4286Z" fill="#00AAEA"/>
<path d="M13.4115 8.22497L9.37072 4.5515C9.26929 4.45929 9.13714 4.4082 9.00007 4.4082C8.86299 4.4082 8.73084 4.45929 8.62942 4.5515L4.5886 8.22497C4.49446 8.31058 4.43283 8.42611 4.41417 8.55198C4.3955 8.67785 4.42095 8.80629 4.4862 8.91554C4.53768 8.99871 4.60983 9.06712 4.69561 9.11412C4.78139 9.16111 4.87789 9.18509 4.97569 9.1837H5.51027V12.6735C5.51027 12.8196 5.56833 12.9598 5.67166 13.0631C5.775 13.1665 5.91515 13.2245 6.06129 13.2245H7.34701C7.49315 13.2245 7.6333 13.1665 7.73664 13.0631C7.83997 12.9598 7.89803 12.8196 7.89803 12.6735V10.6531C7.89803 10.5069 7.95608 10.3668 8.05942 10.2635C8.16275 10.1601 8.30291 10.1021 8.44905 10.1021H9.55109C9.69723 10.1021 9.83738 10.1601 9.94072 10.2635C10.0441 10.3668 10.1021 10.5069 10.1021 10.6531V12.6735C10.1021 12.8196 10.1602 12.9598 10.2635 13.0631C10.3668 13.1665 10.507 13.2245 10.6531 13.2245H11.9388C12.085 13.2245 12.2251 13.1665 12.3285 13.0631C12.4318 12.9598 12.4899 12.8196 12.4899 12.6735V9.1837H13.0244C13.1222 9.18509 13.2187 9.16111 13.3045 9.11412C13.3903 9.06712 13.4625 8.99871 13.5139 8.91554C13.5792 8.80629 13.6046 8.67785 13.586 8.55198C13.5673 8.42611 13.5057 8.31058 13.4115 8.22497Z" fill="#00AAEA"/>
</svg>
