<svg width="72" height="72" viewBox="0 0 72 72" fill="none" xmlns="http://www.w3.org/2000/svg">
<path fill-rule="evenodd" clip-rule="evenodd" d="M32.1968 40.3697C31.4257 39.5978 31.1366 38.5094 31.4197 37.4571L32.7555 32.4671C27.4272 23.5304 29.4423 11.9615 37.5823 5.29959C45.2073 -0.93563 56.3172 -0.994425 63.9979 5.1609C68.7102 8.93731 71.6003 14.5333 71.9301 20.5138C72.092 23.4766 71.6286 26.4403 70.5699 29.2119C69.5111 31.9834 67.881 34.5006 65.7855 36.5993C61.7373 40.6501 56.2976 42.7501 50.8293 42.7501C47.052 42.7573 43.343 41.7426 40.0944 39.8134L35.1064 41.1506C34.5958 41.2906 34.0572 41.292 33.5459 41.1548C33.0346 41.0175 32.569 40.7466 32.1968 40.3697ZM41.2949 23.5835C42.8827 23.5835 44.1699 22.2963 44.1699 20.7085C44.1699 19.1207 42.8827 17.8335 41.2949 17.8335C39.7071 17.8335 38.4199 19.1207 38.4199 20.7085C38.4199 22.2963 39.7071 23.5835 41.2949 23.5835ZM53.7533 20.7085C53.7533 22.2963 52.4661 23.5835 50.8783 23.5835C49.2904 23.5835 48.0033 22.2963 48.0033 20.7085C48.0033 19.1207 49.2904 17.8335 50.8783 17.8335C52.4661 17.8335 53.7533 19.1207 53.7533 20.7085ZM60.4616 23.5835C62.0494 23.5835 63.3366 22.2963 63.3366 20.7085C63.3366 19.1207 62.0494 17.8335 60.4616 17.8335C58.8738 17.8335 57.5866 19.1207 57.5866 20.7085C57.5866 22.2963 58.8738 23.5835 60.4616 23.5835Z" fill="white"/>
<path d="M51.3395 58.8759V66.5166C51.3506 69.3305 49.0743 71.6194 46.2557 71.6321C46.0955 71.6321 45.9354 71.6259 45.7751 71.6115C37.9235 70.7609 30.3805 68.0827 23.7506 63.7915C17.5865 59.8826 12.3583 54.6647 8.43727 48.5083C4.12535 41.8659 1.44126 34.2999 0.603074 26.4251C0.349355 23.6238 2.41936 21.1462 5.22679 20.8923C5.37829 20.8804 5.53016 20.8741 5.68212 20.8733H13.3388C15.9006 20.848 18.0847 22.7228 18.4432 25.2544C18.767 27.6998 19.3662 30.1007 20.2293 32.4114C20.5725 33.3231 20.6468 34.3142 20.4432 35.2669C20.2396 36.2195 19.7668 37.0937 19.0809 37.7855L15.8402 41.0197C19.4761 47.3994 24.7665 52.6794 31.1534 56.3028L34.394 53.0686C35.8105 51.6696 37.9137 51.2223 39.7793 51.9219C42.0948 52.7847 44.5006 53.3828 46.9506 53.7047C49.5169 54.0664 51.4043 56.2904 51.3395 58.8759Z" fill="white"/>
</svg>