<svg width="74" height="74" viewBox="0 0 74 74" fill="none" xmlns="http://www.w3.org/2000/svg">
<path d="M3.38846 64.2743C2.89941 66.0919 3.39886 67.9719 4.73073 69.3051C5.37356 69.9561 6.17784 70.4241 7.06103 70.6611C7.94423 70.8982 8.87452 70.8957 9.75645 70.654L18.372 68.3443C23.9832 71.6765 30.3897 73.4291 36.9141 73.4168C46.3594 73.4168 55.7553 69.7895 62.7476 62.7927C66.367 59.1675 69.1828 54.8197 71.0114 50.0325C72.8401 45.2453 73.6407 40.1261 73.3609 35.0085C72.7912 24.6787 67.7993 15.0128 59.6599 8.48992C46.3932 -2.142 27.2034 -2.04045 14.033 8.72948C-0.0270538 20.2363 -3.5076 40.219 5.69581 55.6552L3.38846 64.2743Z" fill="white"/>
<path d="M27.8363 30.553C28.5263 30.553 29.1879 30.2786 29.6758 29.7903C30.1636 29.302 30.4377 28.6396 30.4377 27.949C30.4377 25.944 31.3429 24.0691 32.9219 22.8088C34.5191 21.5329 36.5273 21.0954 38.5771 21.5667C39.741 21.8493 40.8047 22.4474 41.6513 23.2954C42.4979 24.1434 43.0949 25.2084 43.3765 26.3736C44.0087 29.1234 42.9239 31.894 40.6114 33.4303C36.7198 36.0135 34.3968 40.4896 34.3968 45.4085C34.3968 46.0991 34.6709 46.7614 35.1587 47.2498C35.6466 47.7381 36.3082 48.0124 36.9981 48.0124C37.688 48.0124 38.3497 47.7381 38.8375 47.2498C39.3254 46.7614 39.5994 46.0991 39.5994 45.4085C39.5994 42.2421 41.0536 39.3856 43.4884 37.7711C47.6245 35.024 49.5702 30.0895 48.4465 25.2071C47.9516 23.087 46.8746 21.1475 45.3371 19.6075C43.7996 18.0675 41.8628 16.9883 39.7451 16.4917C38.0074 16.0793 36.1988 16.0668 34.4556 16.4551C32.7123 16.8435 31.0797 17.6225 29.6807 18.7337C28.2908 19.8331 27.1683 21.2339 26.3978 22.8307C25.6272 24.4274 25.2288 26.1784 25.2324 27.9516C25.2324 28.6422 25.5065 29.3046 25.9944 29.7929C26.4822 30.2812 27.1438 30.5556 27.8338 30.5556L27.8363 30.553ZM37.0502 52.6292H37.0242C35.5882 52.6292 34.4359 53.7958 34.4359 55.2332C34.4359 56.6706 35.6142 57.8371 37.0502 57.8371C37.7401 57.8371 38.4017 57.5628 38.8896 57.0745C39.3774 56.5861 39.6515 55.9238 39.6515 55.2332C39.6515 54.5426 39.3774 53.8803 38.8896 53.3919C38.4017 52.9036 37.7401 52.6292 37.0502 52.6292Z" fill="#AFD200"/>
</svg>