<svg width="74" height="78" viewBox="0 0 74 78" fill="none" xmlns="http://www.w3.org/2000/svg">
<path fill-rule="evenodd" clip-rule="evenodd" d="M24.8613 52.9393C32.0361 52.9228 39.168 50.1465 44.4796 44.8061C47.2372 42.0309 49.3826 38.7024 50.7759 35.0376C51.5473 33.0084 52.0786 30.9014 52.363 28.7598C56.697 29.338 60.9011 31.0864 64.4497 34.0021C73.8231 41.7101 76.1434 55.0956 70.0078 65.4357L71.546 71.2092C71.8721 72.4267 71.5391 73.6861 70.6512 74.5791C70.2226 75.0152 69.6865 75.3287 69.0977 75.4875C68.5089 75.6462 67.8887 75.6446 67.3007 75.4827L61.557 73.9355C57.8162 76.1676 53.5452 77.3416 49.1956 77.3333C42.8987 77.3333 36.6347 74.9036 31.9732 70.2167C29.5602 67.7884 27.6831 64.876 26.4639 61.6692C25.403 58.8786 24.8612 55.9195 24.8613 52.9393ZM47.2295 44.9055C47.8306 43.0467 50.4477 43.0467 51.0488 44.9055L51.803 47.2378C52.0719 48.0691 52.8428 48.6319 53.7127 48.6319H56.1534C58.0986 48.6319 58.9073 51.1329 57.3336 52.2817L55.3591 53.7232C54.6553 54.2369 54.3608 55.1476 54.6297 55.9789L55.3839 58.3112C55.985 60.17 53.8676 61.7157 52.294 60.5669L50.3194 59.1254C49.6156 58.6117 48.6627 58.6117 47.9589 59.1254L45.9844 60.5669C44.4107 61.7157 42.2934 60.17 42.8945 58.3112L43.6487 55.9789C43.9175 55.1476 43.623 54.2369 42.9192 53.7232L40.9447 52.2817C39.371 51.1329 40.1798 48.6319 42.1249 48.6319H44.5656C45.4355 48.6319 46.2065 48.0691 46.4753 47.2378L47.2295 44.9055Z" fill="white"/>
<path fill-rule="evenodd" clip-rule="evenodd" d="M3.34979 46.7001C2.46188 45.8071 2.12891 44.5477 2.45494 43.3302L3.99318 37.5567C-2.14244 27.2166 0.177927 13.8311 9.55131 6.12315C18.3316 -1.09116 31.1248 -1.15919 39.9693 5.96267C45.3956 10.3321 48.7236 16.8068 49.1034 23.7263C49.2899 27.1544 48.7562 30.5835 47.537 33.7902C46.3179 36.997 44.4407 39.9094 42.0278 42.3377C37.3663 47.0246 31.1023 49.4543 24.8054 49.4543C20.4558 49.4626 16.1848 48.2886 12.444 46.0565L6.70028 47.6037C6.11233 47.7656 5.49213 47.7672 4.90333 47.6085C4.31453 47.4497 3.77834 47.1362 3.34979 46.7001ZM16.0326 25.0605C18.4705 25.0605 20.4468 22.5783 20.4468 19.5164C20.4468 16.4545 18.4705 13.9723 16.0326 13.9723C13.5948 13.9723 11.6185 16.4545 11.6185 19.5164C11.6185 22.5783 13.5948 25.0605 16.0326 25.0605ZM38.1031 19.5164C38.1031 22.5783 36.1268 25.0605 33.6889 25.0605C31.2511 25.0605 29.2748 22.5783 29.2748 19.5164C29.2748 16.4545 31.2511 13.9723 33.6889 13.9723C36.1268 13.9723 38.1031 16.4545 38.1031 19.5164ZM15.1738 31.0367C14.8018 30.2892 13.8972 29.9862 13.1533 30.3599C12.4094 30.7337 12.1079 31.6426 12.4798 32.3901C13.7396 34.9217 17.9202 39.8794 24.8622 39.8794C31.7415 39.8794 36.6333 34.9956 38.2541 32.5527C38.7155 31.8574 38.5285 30.9179 37.8364 30.4543C37.1444 29.9908 36.2094 30.1787 35.7481 30.874C34.4262 32.8663 30.3424 36.8531 24.8622 36.8531C19.4445 36.8531 16.121 32.9402 15.1738 31.0367Z" fill="white"/>
</svg>