<svg width="63" height="78" viewBox="0 0 63 78" fill="none" xmlns="http://www.w3.org/2000/svg">
<path d="M53.2096 9.33685C46.9502 3.55662 39.7024 0.666504 31.4664 0.666504C23.2303 0.666504 15.9825 3.55662 9.72311 9.33685C3.46369 15.1021 0.333984 22.859 0.333984 32.5776C0.333984 39.0616 2.90963 46.1147 8.06092 53.7368C12.8079 60.7599 19.8011 68.3222 29.0405 76.4235C30.4181 77.6364 32.4846 77.6364 33.8623 76.4235C43.1017 68.3222 50.0949 60.7599 54.8418 53.7368C59.9931 46.1147 62.5688 39.0616 62.5688 32.5776C62.5987 22.859 59.469 15.1021 53.2096 9.33685ZM42.353 36.0966H34.2816V44.168C34.2816 45.7253 33.0237 46.9832 31.4664 46.9832C29.909 46.9832 28.6511 45.7253 28.6511 44.168V36.0966H20.5798C19.0224 36.0966 17.7645 34.8387 17.7645 33.2814C17.7645 31.724 19.0224 30.4661 20.5798 30.4661H28.6511V22.3948C28.6511 20.8374 29.909 19.5795 31.4664 19.5795C33.0237 19.5795 34.2816 20.8374 34.2816 22.3948V30.4661H42.353C43.9103 30.4961 45.1382 31.7839 45.1083 33.3413C45.0634 34.8537 43.8504 36.0667 42.353 36.0966Z" fill="white"/>
</svg>