<svg width="62" height="79" viewBox="0 0 62 79" fill="none" xmlns="http://www.w3.org/2000/svg">
<path fill-rule="evenodd" clip-rule="evenodd" d="M-0.00390625 56.2209V78.3939L15.0714 78.4224L10.8871 62.7311C10.6958 62.0139 11.1222 61.2775 11.8393 61.0863C12.5565 60.895 13.2929 61.3214 13.4841 62.0385L17.8546 78.4277L45.225 78.4796L48.4967 62.1212C48.6423 61.3934 49.3503 60.9214 50.078 61.067C50.8059 61.2126 51.2778 61.9206 51.1323 62.6484L47.965 78.4848L62.0049 78.5115V56.1881C62.0049 51.6649 57.4774 49.918 53.8379 48.5139L39.955 43.163C39.771 43.0923 39.5726 43.0673 39.3768 43.0903C39.1811 43.1133 38.9938 43.1836 38.8312 43.2951C38.6688 43.4067 38.536 43.5561 38.4442 43.7305C38.3524 43.9049 38.3043 44.099 38.3043 44.2961C38.3043 48.0279 35.0284 51.0643 31.0006 51.0643C26.9817 51.0643 23.7053 48.0343 23.6965 44.3096C23.696 44.1127 23.6478 43.9189 23.5558 43.7449C23.4638 43.5708 23.3308 43.4218 23.1684 43.3105C23.006 43.1993 22.8189 43.1293 22.6234 43.1064C22.4278 43.0836 22.2297 43.1086 22.046 43.1794L8.198 48.515C4.54408 49.9411 -0.00390625 51.7161 -0.00390625 56.2209ZM29.786 70.2605C29.786 70.9314 30.3294 71.4748 31.0003 71.4748C31.6712 71.4748 32.2153 70.9315 32.2147 70.2604V65.9437H36.531C37.2023 65.9437 37.7453 65.4003 37.7453 64.7295C37.7453 64.0586 37.2019 63.5152 36.531 63.5152H32.2144V59.199C32.2144 58.5281 31.6705 57.9848 31.0001 57.9848C30.3291 57.9848 29.7857 58.5281 29.7857 59.199V63.5152H25.4696C24.7987 63.5152 24.2553 64.0586 24.2553 64.7295C24.2553 65.4005 24.7987 65.9439 25.4696 65.9439H29.786V70.2605Z" fill="white"/>
<path fill-rule="evenodd" clip-rule="evenodd" d="M11.4437 44.6625C7.67152 40.1584 5.69291 31.5256 6.90761 22.7229C8.83447 8.75562 17.6257 0.416504 30.4227 0.416504C43.0808 0.416504 51.8638 8.64224 53.9172 22.42C55.2196 31.1587 53.4274 39.78 49.8348 44.3671L40.8307 40.8967C40.5102 40.7732 40.1738 40.6958 39.8315 40.6667L38.6997 37.1173C36.323 39.3978 33.4353 40.8689 30.3143 40.8689C27.719 40.8689 25.285 39.8513 23.1721 38.1975L22.0952 40.6908C21.7836 40.7242 21.4741 40.7978 21.1751 40.9132L11.4437 44.6625ZM18.0374 21.932C18.028 22.1293 18.0237 22.3272 18.0237 22.5271C18.0237 29.5412 23.8108 38.4404 30.3149 38.4404C36.819 38.4404 42.6073 29.5415 42.6073 22.5271C42.6073 21.8934 42.558 21.2567 42.4604 20.6299C40.7251 19.3412 36.0366 15.6096 34.7373 11.9852C32.5259 13.653 30.37 14.3841 28.2727 15.0953C24.9554 16.2206 21.8185 17.2852 18.0374 21.932Z" fill="white"/>
</svg>