<svg width="72" height="74" viewBox="0 0 72 74" fill="none" xmlns="http://www.w3.org/2000/svg">
<path d="M37.8954 58.464C38.1892 53.6894 40.2357 49.1864 43.6488 45.8046C47.0619 42.4228 51.6055 40.396 56.4225 40.1065C58.658 39.9954 60.8959 40.2685 63.0374 40.9138C63.1947 40.9629 63.3615 40.975 63.5244 40.9492C63.6873 40.9233 63.8418 40.8602 63.9758 40.7648C64.1099 40.6694 64.2196 40.5444 64.2964 40.3997C64.3733 40.255 64.415 40.0945 64.4184 39.931V27.9618C64.4184 27.6825 64.3065 27.4147 64.1072 27.2172C63.908 27.0197 63.6378 26.9088 63.3561 26.9088H1.74047C1.45873 26.9088 1.18852 27.0197 0.989289 27.2172C0.790062 27.4147 0.678137 27.6825 0.678137 27.9618V55.8666C0.47225 57.297 0.605098 58.7552 1.06616 60.1259C1.52723 61.4965 2.30386 62.742 3.33456 63.7636C4.36527 64.7853 5.62176 65.5551 7.00455 66.0121C8.38735 66.4691 9.85849 66.6008 11.3015 66.3967H37.7183C37.8833 66.3934 38.0451 66.352 38.1911 66.2758C38.3371 66.1997 38.4632 66.0909 38.5595 65.9581C38.6557 65.8252 38.7193 65.672 38.7454 65.5105C38.7715 65.3491 38.7594 65.1838 38.7098 65.0278C38.059 62.9027 37.7835 60.6821 37.8954 58.464ZM18.4546 55.8666C17.5154 55.8713 16.6129 55.5059 15.9454 54.851C15.278 54.196 14.9005 53.305 14.8958 52.3741C14.8911 51.4432 15.2596 50.5486 15.9204 49.887C16.5812 49.2255 17.48 48.8512 18.4192 48.8465H18.4546C19.3938 48.8465 20.2945 49.2163 20.9585 49.8746C21.6226 50.5329 21.9957 51.4257 21.9957 52.3566C21.9957 53.2875 21.6226 54.1803 20.9585 54.8386C20.2945 55.4968 19.3938 55.8666 18.4546 55.8666ZM18.4546 41.8265C17.5154 41.8311 16.6129 41.4658 15.9454 40.8108C15.278 40.1558 14.9005 39.2649 14.8958 38.334C14.8911 37.4031 15.2596 36.5084 15.9204 35.8469C16.5812 35.1853 17.48 34.811 18.4192 34.8064H18.4546C19.3938 34.8064 20.2945 35.1762 20.9585 35.8344C21.6226 36.4927 21.9957 37.3855 21.9957 38.3164C21.9957 39.2473 21.6226 40.1401 20.9585 40.7984C20.2945 41.4567 19.3938 41.8265 18.4546 41.8265ZM32.6191 41.8265C31.6799 41.8311 30.7774 41.4658 30.11 40.8108C29.4425 40.1558 29.065 39.2649 29.0603 38.334C29.0556 37.4031 29.4241 36.5084 30.0849 35.8469C30.7457 35.1853 31.6445 34.811 32.5837 34.8064H32.6191C33.5583 34.8064 34.459 35.1762 35.123 35.8344C35.7871 36.4927 36.1602 37.3855 36.1602 38.3164C36.1602 39.2473 35.7871 40.1401 35.123 40.7984C34.459 41.4567 33.5583 41.8265 32.6191 41.8265ZM0.678137 20.5907V19.0112C0.47225 17.5808 0.605098 16.1226 1.06616 14.752C1.52723 13.3813 2.30386 12.1358 3.33456 11.1142C4.36527 10.0925 5.62176 9.32273 7.00455 8.86571C8.38735 8.40869 9.85849 8.277 11.3015 8.48109H15.7279V3.21603C15.7279 2.51784 16.0077 1.84824 16.5058 1.35455C17.0039 0.860851 17.6794 0.583496 18.3838 0.583496C19.0881 0.583496 19.7637 0.860851 20.2617 1.35455C20.7598 1.84824 21.0396 2.51784 21.0396 3.21603V8.48109H44.0569V3.21603C44.0569 2.51784 44.3367 1.84824 44.8348 1.35455C45.3329 0.860851 46.0084 0.583496 46.7128 0.583496C47.4171 0.583496 48.0927 0.860851 48.5907 1.35455C49.0888 1.84824 49.3686 2.51784 49.3686 3.21603V8.48109H53.795C55.238 8.277 56.7092 8.40869 58.092 8.86571C59.4748 9.32273 60.7313 10.0925 61.762 11.1142C62.7927 12.1358 63.5693 13.3813 64.0304 14.752C64.4914 16.1226 64.6243 17.5808 64.4184 19.0112V20.5907C64.4184 20.87 64.3065 21.1378 64.1072 21.3353C63.908 21.5328 63.6378 21.6437 63.3561 21.6437H1.74047C1.45873 21.6437 1.18852 21.5328 0.989289 21.3353C0.790062 21.1378 0.678137 20.87 0.678137 20.5907ZM57.3361 45.3365C54.5347 45.3365 51.7961 46.1599 49.4668 47.7027C47.1374 49.2454 45.3219 51.4382 44.2499 54.0037C43.1778 56.5692 42.8973 59.3922 43.4438 62.1158C43.9903 64.8393 45.3394 67.341 47.3203 69.3046C49.3013 71.2681 51.8251 72.6053 54.5728 73.147C57.3204 73.6888 60.1684 73.4107 62.7567 72.3481C65.3449 71.2854 67.5571 69.4858 69.1135 67.1769C70.6699 64.8681 71.5006 62.1535 71.5006 59.3767C71.5006 55.653 70.0083 52.0818 67.352 49.4488C64.6956 46.8157 61.0928 45.3365 57.3361 45.3365ZM62.3822 64.375C62.0502 64.704 61.6 64.8888 61.1305 64.8888C60.661 64.8888 60.2107 64.704 59.8787 64.375L56.0826 60.6192C55.9183 60.4559 55.788 60.2621 55.6993 60.0489C55.6106 59.8357 55.5652 59.6073 55.5656 59.3767V54.1116C55.5656 53.6461 55.7521 53.1997 56.0842 52.8706C56.4162 52.5415 56.8666 52.3566 57.3361 52.3566C57.8057 52.3566 58.2561 52.5415 58.5881 52.8706C58.9202 53.1997 59.1067 53.6461 59.1067 54.1116V58.6501L62.3822 61.8934C62.7142 62.2225 62.9007 62.6688 62.9007 63.1342C62.9007 63.5995 62.7142 64.0458 62.3822 64.375Z" fill="white"/>
</svg>