<svg width="440" height="392" viewBox="0 0 440 392" fill="none" xmlns="http://www.w3.org/2000/svg">
<g clip-path="url(#clip0_991_4658)">
<path fill-rule="evenodd" clip-rule="evenodd" d="M255.217 0.00300503C308.918 0.342704 358.303 26.0437 392.8 67.151C428.473 109.66 445.123 163.462 438.618 218.546C430.986 283.163 414.767 357.742 355.335 384.383C296.715 410.66 238.06 360.066 178.932 334.953C113.3 307.077 18.5648 303.749 2.23006 234.41C-14.1229 164.993 63.0867 113.896 115.431 65.3965C155.117 28.6248 201.084 -0.33942 255.217 0.00300503Z" fill="#E5F4F9"/>
<rect x="168" y="83" width="126" height="168" rx="4" fill="#879399"/>
<rect x="188" y="105" width="86" height="4" rx="2" fill="#222222"/>
<rect x="188" y="125" width="86" height="4" rx="2" fill="#222222"/>
<rect x="188" y="185" width="86" height="4" rx="2" fill="#222222"/>
<rect x="188" y="205" width="86" height="4" rx="2" fill="#222222"/>
<rect x="188" y="225" width="86" height="4" rx="2" fill="#222222"/>
<rect x="188" y="145" width="67" height="4" rx="2" fill="#222222"/>
<rect x="188" y="165" width="67" height="4" rx="2" fill="#222222"/>
<rect x="158" y="73" width="126" height="168" rx="4" fill="#E6EAEB"/>
<rect x="178" y="95" width="86" height="4" rx="2" fill="#222222"/>
<rect x="178" y="115" width="86" height="4" rx="2" fill="#222222"/>
<rect x="178" y="175" width="86" height="4" rx="2" fill="#222222"/>
<rect x="178" y="195" width="86" height="4" rx="2" fill="#222222"/>
<rect x="178" y="215" width="86" height="4" rx="2" fill="#222222"/>
<rect x="178" y="135" width="67" height="4" rx="2" fill="#222222"/>
<rect x="178" y="155" width="67" height="4" rx="2" fill="#222222"/>
<rect x="148" y="63" width="126" height="168" rx="4" fill="white"/>
<rect x="168" y="85" width="86" height="4" rx="2" fill="#5A6970"/>
<rect x="168" y="105" width="86" height="4" rx="2" fill="#5A6970"/>
<rect x="168" y="165" width="86" height="4" rx="2" fill="#5A6970"/>
<rect x="168" y="185" width="86" height="4" rx="2" fill="#5A6970"/>
<rect x="168" y="205" width="86" height="4" rx="2" fill="#5A6970"/>
<rect x="168" y="125" width="67" height="4" rx="2" fill="#5A6970"/>
<rect x="168" y="145" width="67" height="4" rx="2" fill="#5A6970"/>
<rect width="104.372" height="11.2698" transform="matrix(0.707478 -0.706735 0.707478 0.706735 144.9 350.613)" fill="#00AAEA"/>
<rect width="81.5013" height="24.2155" rx="8" transform="matrix(0.707478 -0.706735 0.707478 0.706735 138.064 348.29)" fill="#0096CC"/>
<path fill-rule="evenodd" clip-rule="evenodd" d="M290.461 314.421C347.594 314.421 393.908 268.163 393.908 211.099C393.908 154.036 347.594 107.777 290.461 107.777C233.329 107.777 187.014 154.036 187.014 211.099C187.014 268.163 233.329 314.421 290.461 314.421ZM290.46 297.769C338.384 297.769 377.235 258.966 377.235 211.099C377.235 163.233 338.384 124.43 290.46 124.43C242.536 124.43 203.686 163.233 203.686 211.099C203.686 258.966 242.536 297.769 290.46 297.769Z" fill="#00AAEA"/>
<ellipse cx="290.46" cy="211.099" rx="86.7746" ry="86.6694" fill="#E5F4F9"/>
<circle cx="268" cy="200" r="8" fill="#00202C"/>
<circle cx="309" cy="200" r="8" fill="#00202C"/>
<path fill-rule="evenodd" clip-rule="evenodd" d="M279.508 219.638C277.13 221.679 275.5 224.759 275.5 229C275.5 229.828 274.828 230.5 274 230.5C273.172 230.5 272.5 229.828 272.5 229C272.5 223.908 274.495 219.988 277.554 217.362C280.583 214.763 284.569 213.5 288.5 213.5C292.431 213.5 296.417 214.763 299.446 217.362C302.505 219.988 304.5 223.908 304.5 229C304.5 229.828 303.828 230.5 303 230.5C302.172 230.5 301.5 229.828 301.5 229C301.5 224.759 299.87 221.679 297.492 219.638C295.083 217.571 291.819 216.5 288.5 216.5C285.181 216.5 281.917 217.57 279.508 219.638Z" fill="#00202C"/>
</g>
<defs>
<clipPath id="clip0_991_4658">
<rect width="440" height="392" fill="white"/>
</clipPath>
</defs>
</svg>