<svg xmlns="http://www.w3.org/2000/svg" width="13.442" height="19.804" viewBox="0 0 0.46 0.68"><circle cx=".25" cy=".24" r=".11" fill="#fefefe"/><path d="M.23.15c.05 0 .09.04.09.09C.32.29.28.33.23.33A.09.09 0 01.14.24C.14.19.18.15.23.15zm0 .43L.4.3A.178.178 0 00.23.05C.1.05.01.19.06.3l.17.28z" fill="none" stroke="#fff" stroke-width=".1" stroke-linecap="round" stroke-miterlimit="22.926"/><path d="M.23.15c.05 0 .09.04.09.09C.32.29.28.33.23.33A.09.09 0 01.14.24C.14.19.18.15.23.15zm0 .43L.4.3A.178.178 0 00.23.05C.1.05.01.19.06.3l.17.28z" fill="#AFD200"/></svg>